<?xml version="1.0" encoding="UTF-8" standalone="no"?>
<svg
   width="184"
   height="32"
   viewBox="0 0 188 26"
   fill="none"
   version="1.1"
   id="svg30"
   sodipodi:docname="assets-logo-full.svg"
   inkscape:version="1.3.2 (091e20e, 2023-11-25)"
   xml:space="preserve"
   xmlns:inkscape="http://www.inkscape.org/namespaces/inkscape"
   xmlns:sodipodi="http://sodipodi.sourceforge.net/DTD/sodipodi-0.dtd"
   xmlns="http://www.w3.org/2000/svg"
   xmlns:svg="http://www.w3.org/2000/svg"><sodipodi:namedview
     id="namedview30"
     pagecolor="#ffffff"
     bordercolor="#000000"
     borderopacity="0.25"
     inkscape:showpageshadow="2"
     inkscape:pageopacity="0.0"
     inkscape:pagecheckerboard="0"
     inkscape:deskcolor="#d1d1d1"
     inkscape:zoom="4.9619565"
     inkscape:cx="93.209201"
     inkscape:cy="9.875137"
     inkscape:window-width="2560"
     inkscape:window-height="1387"
     inkscape:window-x="0"
     inkscape:window-y="25"
     inkscape:window-maximized="1"
     inkscape:current-layer="svg30"
     showgrid="false" /><path
     inkscape:path-effect="#path-effect4"
     d="M 0,0"
     id="path16"
     transform="translate(3.2946331,-0.20591457)" /><path
     fill-rule="evenodd"
     clip-rule="evenodd"
     d="M93.2642 13.8225C93.4341 12.9856 93.5377 12.1366 93.5741 11.2833C93.5741 9.00486 92.3158 8.17735 89.3194 8.16602H87.6833C83.7196 8.16602 82.843 9.03509 82.1553 12.8137L81.8001 14.7823C81.6298 15.6192 81.5262 16.4682 81.4902 17.3215C81.4902 19.5962 82.7372 20.4275 85.76 20.4275H89.1607L88.9945 21.3532C88.6393 23.439 88.2841 23.5826 86.4326 23.5826H81.5469L81.9739 26.0008H87.0976C89.8258 26.0008 91.2238 25.3585 91.7944 22.1354L93.2642 13.8225ZM90.3132 13.7961L89.5877 18.0432L86.4931 18.0318C84.9287 18.0318 84.43 17.8429 84.43 16.8227C84.475 16.1366 84.5697 15.4547 84.7133 14.7823L85.0723 12.8137C85.3784 11.0944 85.6618 10.5465 87.4641 10.5465H88.5335C90.0751 10.5465 90.5966 10.7392 90.5966 11.7557C90.5573 12.4423 90.4625 13.1247 90.3132 13.7961Z"
     fill="currentcolor"
     id="path7" /><path
     d="M179.919 21.9715H176.943L178.562 12.8304C179.205 9.14065 180.062 8.47411 183.799 8.47411H187.084L186.06 10.926H183.894C182.18 10.926 181.823 11.2117 181.514 12.9971L179.919 21.9715Z"
     fill="currentcolor"
     id="path15" /><defs
     id="defs30"><linearGradient
       id="paint0_linear_18110_34031"
       x1="7.81543"
       y1="4.88815"
       x2="7.92589"
       y2="15.4398"
       gradientUnits="userSpaceOnUse"
       gradientTransform="translate(0,-3.9123768)"><stop
         stop-color="#009BFF"
         id="stop19" /><stop
         offset="0.35"
         stop-color="#0081FE"
         id="stop20" /><stop
         offset="0.75"
         stop-color="#006AFD"
         id="stop21" /><stop
         offset="1"
         stop-color="#0062FD"
         id="stop22" /></linearGradient><linearGradient
       id="paint1_linear_18110_34031"
       x1="5.68577"
       y1="2.65136"
       x2="20.3785"
       y2="5.41299"
       gradientUnits="userSpaceOnUse"
       gradientTransform="translate(-3.7064622,17.502738)"><stop
         offset="0.03"
         stop-color="#E9FFFF"
         id="stop23"
         style="stop-color:#9bffff;stop-opacity:1;" /><stop
         offset="0.17"
         stop-color="#C4FAC9"
         id="stop24"
         style="stop-color:#69f476;stop-opacity:1;" /><stop
         offset="0.33"
         stop-color="#A0F694"
         id="stop25" /><stop
         offset="0.48"
         stop-color="#82F269"
         id="stop26" /><stop
         offset="0.63"
         stop-color="#6AEF47"
         id="stop27" /><stop
         offset="0.76"
         stop-color="#5AED2F"
         id="stop28" /><stop
         offset="0.89"
         stop-color="#4FEB20"
         id="stop29" /><stop
         offset="1"
         stop-color="#4CEB1B"
         id="stop30" /></linearGradient><inkscape:path-effect
       effect="fillet_chamfer"
       id="path-effect3"
       is_visible="true"
       lpeversion="1"
       nodesatellites_param="F,0,0,1,0,0,0,1 @ F,0,0,1,0,0,0,1 @ F,0,0,1,0,0,0,1 @ F,0,0,1,0,0,0,1 @ F,0,0,1,0,0,0,1 @ F,0,0,1,0,0,0,1 @ F,0,0,1,0,0,0,1 @ F,0,0,1,0,0,0,1 @ F,0,0,1,0,0,0,1 @ F,0,0,1,0,0,0,1 @ F,0,0,1,0,0,0,1 @ F,0,0,1,0,0,0,1"
       radius="0"
       unit="px"
       method="auto"
       mode="F"
       chamfer_steps="1"
       flexible="false"
       use_knot_distance="true"
       apply_no_radius="true"
       apply_with_radius="true"
       only_selected="false"
       hide_knots="false" /><inkscape:path-effect
       effect="fillet_chamfer"
       id="path-effect2"
       is_visible="true"
       lpeversion="1"
       nodesatellites_param="F,0,0,1,0,0,0,1 @ F,0,0,1,0,0,0,1 @ F,0,0,1,0,0,0,1 @ F,0,0,1,0,0,0,1 @ F,0,0,1,0,0,0,1 @ F,0,0,1,0,0,0,1 @ F,0,0,1,0,0,0,1 @ F,0,0,1,0,0,0,1 @ F,0,0,1,0,0,0,1 @ F,0,0,1,0,0,0,1"
       radius="0"
       unit="px"
       method="auto"
       mode="F"
       chamfer_steps="1"
       flexible="false"
       use_knot_distance="true"
       apply_no_radius="true"
       apply_with_radius="true"
       only_selected="false"
       hide_knots="false" /><inkscape:path-effect
       effect="fillet_chamfer"
       id="path-effect1"
       is_visible="true"
       lpeversion="1"
       nodesatellites_param=""
       radius="0"
       unit="px"
       method="auto"
       mode="F"
       chamfer_steps="1"
       flexible="false"
       use_knot_distance="true"
       apply_no_radius="true"
       apply_with_radius="true"
       only_selected="false"
       hide_knots="false" /><linearGradient
       id="paint0_linear_2557_23660"
       x1="2.71742"
       y1="5.12812"
       x2="10.0624"
       y2="4.98122"
       gradientUnits="userSpaceOnUse"><stop
         stop-color="#0062FF"
         id="stop4" /><stop
         offset="0.26"
         stop-color="#006AFF"
         id="stop5" /><stop
         offset="0.68"
         stop-color="#0081FF"
         id="stop6" /><stop
         offset="1"
         stop-color="#0097FF"
         id="stop7" /></linearGradient><linearGradient
       id="paint1_linear_2557_23660"
       x1="12.383"
       y1="7.62346"
       x2="9.12269"
       y2="22.0419"
       gradientUnits="userSpaceOnUse"
       gradientTransform="rotate(180,11.094758,14.846101)"><stop
         stop-color="#0097FF"
         id="stop8" /><stop
         offset="0.32"
         stop-color="#0081FF"
         id="stop9" /><stop
         offset="0.74"
         stop-color="#006AFF"
         id="stop10" /><stop
         offset="1"
         stop-color="#0062FF"
         id="stop11" /></linearGradient><linearGradient
       id="paint2_linear_2557_23660"
       x1="5.63057"
       y1="27.3635"
       x2="12.8582"
       y2="21.4727"
       gradientUnits="userSpaceOnUse"
       gradientTransform="rotate(180,11.093601,14.850519)"><stop
         stop-color="#009EFF"
         id="stop12" /><stop
         offset="0.31"
         stop-color="#00A3FF"
         id="stop13" /><stop
         offset="0.71"
         stop-color="#00B3FF"
         id="stop14" /><stop
         offset="1"
         stop-color="#00C3FF"
         id="stop15" /></linearGradient><linearGradient
       id="paint3_linear_2557_23660"
       x1="8.84911"
       y1="5.12811"
       x2="27.9399"
       y2="4.74629"
       gradientUnits="userSpaceOnUse"
       gradientTransform="translate(-3.4384654,19.440067)"><stop
         offset="0.03"
         stop-color="#ECFFFE"
         id="stop16"
         style="stop-color:#5cfffe;stop-opacity:0.97899157;" /><stop
         offset="0.19"
         stop-color="#AFF1D9"
         id="stop17"
         style="stop-color:#80eac1;stop-opacity:0.87815124;" /><stop
         offset="0.34"
         stop-color="#79E5B9"
         id="stop18" /><stop
         offset="0.49"
         stop-color="#4EDB9F"
         id="stop19-3" /><stop
         offset="0.63"
         stop-color="#2CD48A"
         id="stop20-9" /><stop
         offset="0.77"
         stop-color="#14CE7C"
         id="stop21-0" /><stop
         offset="0.89"
         stop-color="#05CB73"
         id="stop22-5" /><stop
         offset="1"
         stop-color="#00CA70"
         id="stop23-2" /></linearGradient><clipPath
       id="clip0_2557_23660"><rect
         width="25.1407"
         height="25.72"
         fill="white"
         transform="translate(2.97754 2)"
         id="rect23" /></clipPath><inkscape:path-effect
       effect="fill_between_many"
       method="originald"
       linkedpaths="#path1,0,1|#path2,0,1|#path3,0,1|#path4,0,1|#path5,0,1|#path6,0,1|#path7,0,1|#path8,0,1|#path9,0,1|#path10,0,1|#path11,0,1|#path12,0,1|#path13,0,1|#path14,0,1|"
       id="path-effect4" /></defs><g
     style="fill:none"
     id="g1"
     transform="matrix(0.89402174,0,0,0.89402174,10.657242,-2.5155661)"><g
       clip-path="url(#clip0_2557_23660)"
       id="g4"
       transform="translate(-10.825223,2.3032389)"><path
         d="m 9.1594162,8.2195022 h 6.2517798 l -2.3394,13.2253998 H 6.8200162 Z"
         fill="url(#paint1_linear_2557_23660)"
         id="path2-2"
         style="fill:url(#paint1_linear_2557_23660)" /><path
         d="m 10.716503,1.9765386 h 5.128869 c 0.08132,9e-4 0.16149,0.0194 0.23505,0.0541 0.07356,0.0346 0.13877,0.0848 0.19121,0.1469003 0.05244,0.0622 0.09086,0.1349 0.11265,0.2133 0.02179,0.0783 0.02644,0.1605 0.01363,0.2408 l -0.993679,5.5833 H 9.1658026 l 1.0249004,-5.7928 c 0.0227,-0.1236 0.0874,-0.2355 0.1833,-0.3167003 0.0958,-0.0813 0.2169,-0.1268 0.3425,-0.1289 z"
         fill="url(#paint2_linear_2557_23660)"
         id="path3-4"
         style="fill:url(#paint2_linear_2557_23660)" /><a
         id="a1"><path
           d="M 23.227534,27.691827 H 7.0873698 c -0.3825166,0 -1.0988262,-0.03155 -1.2324171,-0.36608 -0.038489,-0.09638 -0.051687,-0.204709 -0.031989,-0.31591 l 0.984271,-5.5564 H 24.141034 c 0.0818,8e-4 0.1624,0.01931 0.2363,0.05426 0.074,0.03495 0.1394,0.0855 0.1919,0.14818 0.0526,0.06268 0.0909,0.13598 0.1123,0.21488 0.0215,0.0789 0.0256,0.16152 0.0121,0.24216 l -0.9135,5.14668 c -0.0245,0.12654 -0.094,0.23997 -0.1955,0.31939 -0.1015,0.07942 -0.2283,0.11949 -0.3571,0.11284 z"
           fill="url(#paint3_linear_2557_23660)"
           id="path4-8"
           style="fill:url(#paint3_linear_2557_23660)"
           inkscape:path-effect="#path-effect3" /></a></g></g><text
     xml:space="preserve"
     style="font-size:21.7971px;fill:#000000;stroke-width:1.02174"
     x="36.843044"
     y="18.304537"
     id="text16"><tspan
       id="tspan16"
       style="font-style:normal;font-variant:normal;font-weight:900;font-stretch:normal;font-size:21.7971px;font-family:'Snell Roundhand';-inkscape-font-specification:'Snell Roundhand Heavy';stroke-width:1.02174"
       x="36.843044"
       y="18.304537"
       sodipodi:role="line">Leven Admin</tspan></text></svg>
